<svg viewBox="0 0 1120 360" xmlns="http://www.w3.org/2000/svg" font-family="-apple-system,PingFang SC,Microsoft YaHei,sans-serif">
<text x="120" y="31.0" font-size="12" fill="#1e293b" text-anchor="end">种植业</text>
<rect x="130" y="17.6" width="826.1" height="18.7" fill="#dc2626" rx="2"/>
<text x="964.1" y="31.0" font-size="11.5" fill="#1e293b">9.14亿</text>
<text x="120" y="65.0" font-size="12" fill="#1e293b" text-anchor="end">化学制药</text>
<rect x="130" y="51.6" width="388.6" height="18.7" fill="#dc2626" rx="2"/>
<text x="526.6" y="65.0" font-size="11.5" fill="#1e293b">4.30亿</text>
<text x="120" y="99.0" font-size="12" fill="#1e293b" text-anchor="end">农产品加</text>
<rect x="130" y="85.7" width="307.3" height="18.7" fill="#dc2626" rx="2"/>
<text x="445.3" y="99.0" font-size="11.5" fill="#1e293b">3.40亿</text>
<text x="120" y="133.0" font-size="12" fill="#1e293b" text-anchor="end">教育</text>
<rect x="130" y="119.7" width="297.4" height="18.7" fill="#dc2626" rx="2"/>
<text x="435.4" y="133.0" font-size="11.5" fill="#1e293b">3.29亿</text>
<text x="120" y="167.0" font-size="12" fill="#1e293b" text-anchor="end">汽车零部</text>
<rect x="130" y="153.7" width="260.3" height="18.7" fill="#dc2626" rx="2"/>
<text x="398.3" y="167.0" font-size="11.5" fill="#1e293b">2.88亿</text>
<text x="120" y="201.0" font-size="12" fill="#1e293b" text-anchor="end">光学光电</text>
<rect x="130" y="187.7" width="245.8" height="18.7" fill="#dc2626" rx="2"/>
<text x="383.8" y="201.0" font-size="11.5" fill="#1e293b">2.72亿</text>
<text x="120" y="235.0" font-size="12" fill="#1e293b" text-anchor="end">养殖业</text>
<rect x="130" y="221.7" width="230.5" height="18.7" fill="#dc2626" rx="2"/>
<text x="368.5" y="235.0" font-size="11.5" fill="#1e293b">2.55亿</text>
<text x="120" y="269.0" font-size="12" fill="#1e293b" text-anchor="end">一般零售</text>
<rect x="130" y="255.7" width="209.7" height="18.7" fill="#dc2626" rx="2"/>
<text x="347.7" y="269.0" font-size="11.5" fill="#1e293b">2.32亿</text>
<text x="120" y="303.0" font-size="12" fill="#1e293b" text-anchor="end">食品加工</text>
<rect x="130" y="289.6" width="184.4" height="18.7" fill="#dc2626" rx="2"/>
<text x="322.4" y="303.0" font-size="11.5" fill="#1e293b">2.04亿</text>
<text x="120" y="337.0" font-size="12" fill="#1e293b" text-anchor="end">IT服务Ⅱ</text>
<rect x="130" y="323.6" width="172.6" height="18.7" fill="#dc2626" rx="2"/>
<text x="310.6" y="337.0" font-size="11.5" fill="#1e293b">1.91亿</text>
</svg>