<svg viewBox="0 0 1120 360" xmlns="http://www.w3.org/2000/svg" font-family="-apple-system,PingFang SC,Microsoft YaHei,sans-serif">
<text x="120" y="31.0" font-size="12" fill="#1e293b" text-anchor="end">小金属(6只)</text>
<rect x="130" y="17.6" width="826.1" height="18.7" fill="#dc2626" rx="2"/>
<text x="964.1" y="31.0" font-size="11.5" fill="#1e293b">14.82亿</text>
<text x="120" y="65.0" font-size="12" fill="#1e293b" text-anchor="end">通信设备(5只)</text>
<rect x="130" y="51.6" width="476.0" height="18.7" fill="#dc2626" rx="2"/>
<text x="614.0" y="65.0" font-size="11.5" fill="#1e293b">8.54亿</text>
<text x="120" y="99.0" font-size="12" fill="#1e293b" text-anchor="end">汽车零部(7只)</text>
<rect x="130" y="85.7" width="332.2" height="18.7" fill="#dc2626" rx="2"/>
<text x="470.2" y="99.0" font-size="11.5" fill="#1e293b">5.96亿</text>
<text x="120" y="133.0" font-size="12" fill="#1e293b" text-anchor="end">消费电子(6只)</text>
<rect x="130" y="119.7" width="332.2" height="18.7" fill="#dc2626" rx="2"/>
<text x="470.2" y="133.0" font-size="11.5" fill="#1e293b">5.96亿</text>
<text x="120" y="167.0" font-size="12" fill="#1e293b" text-anchor="end">光学光电(6只)</text>
<rect x="130" y="153.7" width="298.8" height="18.7" fill="#dc2626" rx="2"/>
<text x="436.8" y="167.0" font-size="11.5" fill="#1e293b">5.36亿</text>
<text x="120" y="201.0" font-size="12" fill="#1e293b" text-anchor="end">元件(5只)</text>
<rect x="130" y="187.7" width="288.2" height="18.7" fill="#dc2626" rx="2"/>
<text x="426.2" y="201.0" font-size="11.5" fill="#1e293b">5.17亿</text>
<text x="120" y="235.0" font-size="12" fill="#1e293b" text-anchor="end">半导体(4只)</text>
<rect x="130" y="221.7" width="274.2" height="18.7" fill="#dc2626" rx="2"/>
<text x="412.2" y="235.0" font-size="11.5" fill="#1e293b">4.92亿</text>
<text x="120" y="269.0" font-size="12" fill="#1e293b" text-anchor="end">自动化设(2只)</text>
<rect x="130" y="255.7" width="130.4" height="18.7" fill="#dc2626" rx="2"/>
<text x="268.4" y="269.0" font-size="11.5" fill="#1e293b">2.34亿</text>
<text x="120" y="303.0" font-size="12" fill="#1e293b" text-anchor="end">电网设备(4只)</text>
<rect x="130" y="289.6" width="129.3" height="18.7" fill="#dc2626" rx="2"/>
<text x="267.3" y="303.0" font-size="11.5" fill="#1e293b">2.32亿</text>
<text x="120" y="337.0" font-size="12" fill="#1e293b" text-anchor="end">塑料(3只)</text>
<rect x="130" y="323.6" width="123.7" height="18.7" fill="#dc2626" rx="2"/>
<text x="261.7" y="337.0" font-size="11.5" fill="#1e293b">2.22亿</text>
</svg>