<svg viewBox="0 0 1120 360" xmlns="http://www.w3.org/2000/svg" font-family="-apple-system,PingFang SC,Microsoft YaHei,sans-serif">
<text x="120" y="31.0" font-size="12" fill="#1e293b" text-anchor="end">半导体(5只)</text>
<rect x="130" y="17.6" width="826.1" height="18.7" fill="#dc2626" rx="2"/>
<text x="964.1" y="31.0" font-size="11.5" fill="#1e293b">9.67亿</text>
<text x="120" y="65.0" font-size="12" fill="#1e293b" text-anchor="end">电网设备(6只)</text>
<rect x="130" y="51.6" width="402.4" height="18.7" fill="#dc2626" rx="2"/>
<text x="540.4" y="65.0" font-size="11.5" fill="#1e293b">4.71亿</text>
<text x="120" y="99.0" font-size="12" fill="#1e293b" text-anchor="end">通用设备(4只)</text>
<rect x="130" y="85.7" width="221.3" height="18.7" fill="#dc2626" rx="2"/>
<text x="359.3" y="99.0" font-size="11.5" fill="#1e293b">2.59亿</text>
<text x="120" y="133.0" font-size="12" fill="#1e293b" text-anchor="end">家居用品(4只)</text>
<rect x="130" y="119.7" width="210.2" height="18.7" fill="#dc2626" rx="2"/>
<text x="348.2" y="133.0" font-size="11.5" fill="#1e293b">2.46亿</text>
<text x="120" y="167.0" font-size="12" fill="#1e293b" text-anchor="end">服装家纺(4只)</text>
<rect x="130" y="153.7" width="152.9" height="18.7" fill="#dc2626" rx="2"/>
<text x="290.9" y="167.0" font-size="11.5" fill="#1e293b">1.79亿</text>
<text x="120" y="201.0" font-size="12" fill="#1e293b" text-anchor="end">化学制品(3只)</text>
<rect x="130" y="187.7" width="123.0" height="18.7" fill="#dc2626" rx="2"/>
<text x="261.0" y="201.0" font-size="11.5" fill="#1e293b">1.44亿</text>
<text x="120" y="235.0" font-size="12" fill="#1e293b" text-anchor="end">计算机设备(2只)</text>
<rect x="130" y="221.7" width="112.8" height="18.7" fill="#dc2626" rx="2"/>
<text x="250.8" y="235.0" font-size="11.5" fill="#1e293b">1.32亿</text>
<text x="120" y="269.0" font-size="12" fill="#1e293b" text-anchor="end">电力(2只)</text>
<rect x="130" y="255.7" width="109.3" height="18.7" fill="#dc2626" rx="2"/>
<text x="247.3" y="269.0" font-size="11.5" fill="#1e293b">1.28亿</text>
<text x="120" y="303.0" font-size="12" fill="#1e293b" text-anchor="end">医疗服务(2只)</text>
<rect x="130" y="289.6" width="108.5" height="18.7" fill="#dc2626" rx="2"/>
<text x="246.5" y="303.0" font-size="11.5" fill="#1e293b">1.27亿</text>
<text x="120" y="337.0" font-size="12" fill="#1e293b" text-anchor="end">汽车零部件(2只)</text>
<rect x="130" y="323.6" width="99.1" height="18.7" fill="#dc2626" rx="2"/>
<text x="237.1" y="337.0" font-size="11.5" fill="#1e293b">1.16亿</text>
</svg>