<svg viewBox="0 0 1120 380" xmlns="http://www.w3.org/2000/svg" font-family="-apple-system,PingFang SC,Microsoft YaHei,sans-serif">
<line x1="55" y1="350.0" x2="1100" y2="350.0" stroke="#e2e8f0" stroke-width="1"/>
<text x="47" y="354.0" font-size="11" fill="#64748b" text-anchor="end">0</text>
<line x1="55" y1="286.0" x2="1100" y2="286.0" stroke="#e2e8f0" stroke-width="1"/>
<text x="47" y="290.0" font-size="11" fill="#64748b" text-anchor="end">1,727</text>
<line x1="55" y1="222.0" x2="1100" y2="222.0" stroke="#e2e8f0" stroke-width="1"/>
<text x="47" y="226.0" font-size="11" fill="#64748b" text-anchor="end">3,454</text>
<line x1="55" y1="158.0" x2="1100" y2="158.0" stroke="#e2e8f0" stroke-width="1"/>
<text x="47" y="162.0" font-size="11" fill="#64748b" text-anchor="end">5,181</text>
<line x1="55" y1="94.0" x2="1100" y2="94.0" stroke="#e2e8f0" stroke-width="1"/>
<text x="47" y="98.0" font-size="11" fill="#64748b" text-anchor="end">6,908</text>
<line x1="55" y1="30.0" x2="1100" y2="30.0" stroke="#e2e8f0" stroke-width="1"/>
<text x="47" y="34.0" font-size="11" fill="#64748b" text-anchor="end">8,636</text>
<text x="55.0" y="368" font-size="11" fill="#64748b" text-anchor="middle">09/08</text>
<text x="171.1" y="368" font-size="11" fill="#64748b" text-anchor="middle">09/09</text>
<text x="287.2" y="368" font-size="11" fill="#64748b" text-anchor="middle">09/10</text>
<text x="403.3" y="368" font-size="11" fill="#64748b" text-anchor="middle">09/11</text>
<text x="519.4" y="368" font-size="11" fill="#64748b" text-anchor="middle">09/14</text>
<text x="635.6" y="368" font-size="11" fill="#64748b" text-anchor="middle">09/15</text>
<text x="751.7" y="368" font-size="11" fill="#64748b" text-anchor="middle">09/16</text>
<text x="867.8" y="368" font-size="11" fill="#64748b" text-anchor="middle">09/17</text>
<text x="983.9" y="368" font-size="11" fill="#64748b" text-anchor="middle">09/18</text>
<text x="1100.0" y="368" font-size="11" fill="#64748b" text-anchor="middle">09/21</text>
<polyline points="55.0,204.0 171.1,203.6 287.2,204.2 403.3,205.9 519.4,206.0 635.6,206.8 751.7,205.8 867.8,206.4 983.9,205.0 1100.0,203.6" fill="none" stroke="#dc2626" stroke-width="2"/>
<circle cx="55.0" cy="204.0" r="3" fill="#dc2626"/>
<circle cx="171.1" cy="203.6" r="3" fill="#dc2626"/>
<circle cx="287.2" cy="204.2" r="3" fill="#dc2626"/>
<circle cx="403.3" cy="205.9" r="3" fill="#dc2626"/>
<circle cx="519.4" cy="206.0" r="3" fill="#dc2626"/>
<circle cx="635.6" cy="206.8" r="3" fill="#dc2626"/>
<circle cx="751.7" cy="205.8" r="3" fill="#dc2626"/>
<circle cx="867.8" cy="206.4" r="3" fill="#dc2626"/>
<circle cx="983.9" cy="205.0" r="3" fill="#dc2626"/>
<circle cx="1100.0" cy="203.6" r="3" fill="#dc2626"/>
<polyline points="55.0,225.5 171.1,225.7 287.2,226.3 403.3,226.9 519.4,228.2 635.6,229.6 751.7,227.3 867.8,227.8 983.9,225.0 1100.0,224.0" fill="none" stroke="#2563eb" stroke-width="2"/>
<circle cx="55.0" cy="225.5" r="3" fill="#2563eb"/>
<circle cx="171.1" cy="225.7" r="3" fill="#2563eb"/>
<circle cx="287.2" cy="226.3" r="3" fill="#2563eb"/>
<circle cx="403.3" cy="226.9" r="3" fill="#2563eb"/>
<circle cx="519.4" cy="228.2" r="3" fill="#2563eb"/>
<circle cx="635.6" cy="229.6" r="3" fill="#2563eb"/>
<circle cx="751.7" cy="227.3" r="3" fill="#2563eb"/>
<circle cx="867.8" cy="227.8" r="3" fill="#2563eb"/>
<circle cx="983.9" cy="225.0" r="3" fill="#2563eb"/>
<circle cx="1100.0" cy="224.0" r="3" fill="#2563eb"/>
<polyline points="55.0,291.0 171.1,291.4 287.2,291.9 403.3,292.4 519.4,293.4 635.6,292.5 751.7,290.1 867.8,290.5 983.9,288.8 1100.0,288.6" fill="none" stroke="#9333ea" stroke-width="2"/>
<circle cx="55.0" cy="291.0" r="3" fill="#9333ea"/>
<circle cx="171.1" cy="291.4" r="3" fill="#9333ea"/>
<circle cx="287.2" cy="291.9" r="3" fill="#9333ea"/>
<circle cx="403.3" cy="292.4" r="3" fill="#9333ea"/>
<circle cx="519.4" cy="293.4" r="3" fill="#9333ea"/>
<circle cx="635.6" cy="292.5" r="3" fill="#9333ea"/>
<circle cx="751.7" cy="290.1" r="3" fill="#9333ea"/>
<circle cx="867.8" cy="290.5" r="3" fill="#9333ea"/>
<circle cx="983.9" cy="288.8" r="3" fill="#9333ea"/>
<circle cx="1100.0" cy="288.6" r="3" fill="#9333ea"/>
<polyline points="55.0,181.1 171.1,180.6 287.2,181.5 403.3,182.9 519.4,184.0 635.6,185.1 751.7,184.0 867.8,184.7 983.9,183.0 1100.0,181.8" fill="none" stroke="#ea580c" stroke-width="2"/>
<circle cx="55.0" cy="181.1" r="3" fill="#ea580c"/>
<circle cx="171.1" cy="180.6" r="3" fill="#ea580c"/>
<circle cx="287.2" cy="181.5" r="3" fill="#ea580c"/>
<circle cx="403.3" cy="182.9" r="3" fill="#ea580c"/>
<circle cx="519.4" cy="184.0" r="3" fill="#ea580c"/>
<circle cx="635.6" cy="185.1" r="3" fill="#ea580c"/>
<circle cx="751.7" cy="184.0" r="3" fill="#ea580c"/>
<circle cx="867.8" cy="184.7" r="3" fill="#ea580c"/>
<circle cx="983.9" cy="183.0" r="3" fill="#ea580c"/>
<circle cx="1100.0" cy="181.8" r="3" fill="#ea580c"/>
<polyline points="55.0,62.0 171.1,62.1 287.2,64.0 403.3,69.1 519.4,69.4 635.6,69.8 751.7,65.3 867.8,66.3 983.9,61.0 1100.0,59.1" fill="none" stroke="#0d9488" stroke-width="2"/>
<circle cx="55.0" cy="62.0" r="3" fill="#0d9488"/>
<circle cx="171.1" cy="62.1" r="3" fill="#0d9488"/>
<circle cx="287.2" cy="64.0" r="3" fill="#0d9488"/>
<circle cx="403.3" cy="69.1" r="3" fill="#0d9488"/>
<circle cx="519.4" cy="69.4" r="3" fill="#0d9488"/>
<circle cx="635.6" cy="69.8" r="3" fill="#0d9488"/>
<circle cx="751.7" cy="65.3" r="3" fill="#0d9488"/>
<circle cx="867.8" cy="66.3" r="3" fill="#0d9488"/>
<circle cx="983.9" cy="61.0" r="3" fill="#0d9488"/>
<circle cx="1100.0" cy="59.1" r="3" fill="#0d9488"/>
<polyline points="55.0,66.2 171.1,66.6 287.2,68.8 403.3,74.8 519.4,73.3 635.6,74.4 751.7,68.8 867.8,70.3 983.9,65.1 1100.0,62.2" fill="none" stroke="#a16207" stroke-width="2"/>
<circle cx="55.0" cy="66.2" r="3" fill="#a16207"/>
<circle cx="171.1" cy="66.6" r="3" fill="#a16207"/>
<circle cx="287.2" cy="68.8" r="3" fill="#a16207"/>
<circle cx="403.3" cy="74.8" r="3" fill="#a16207"/>
<circle cx="519.4" cy="73.3" r="3" fill="#a16207"/>
<circle cx="635.6" cy="74.4" r="3" fill="#a16207"/>
<circle cx="751.7" cy="68.8" r="3" fill="#a16207"/>
<circle cx="867.8" cy="70.3" r="3" fill="#a16207"/>
<circle cx="983.9" cy="65.1" r="3" fill="#a16207"/>
<circle cx="1100.0" cy="62.2" r="3" fill="#a16207"/>
<line x1="55" y1="14" x2="71" y2="14" stroke="#dc2626" stroke-width="3"/>
<text x="75" y="18" font-size="11" fill="#1e293b">上证指数</text>
<line x1="141" y1="14" x2="157" y2="14" stroke="#2563eb" stroke-width="3"/>
<text x="161" y="18" font-size="11" fill="#1e293b">创业板指</text>
<line x1="227" y1="14" x2="243" y2="14" stroke="#9333ea" stroke-width="3"/>
<text x="247" y="18" font-size="11" fill="#1e293b">科创50</text>
<line x1="313" y1="14" x2="329" y2="14" stroke="#ea580c" stroke-width="3"/>
<text x="333" y="18" font-size="11" fill="#1e293b">沪深300</text>
<line x1="411" y1="14" x2="427" y2="14" stroke="#0d9488" stroke-width="3"/>
<text x="431" y="18" font-size="11" fill="#1e293b">中证500</text>
<line x1="509" y1="14" x2="525" y2="14" stroke="#a16207" stroke-width="3"/>
<text x="529" y="18" font-size="11" fill="#1e293b">中证1000</text>
</svg>