<svg viewBox="0 0 1120 360" xmlns="http://www.w3.org/2000/svg" font-family="-apple-system,PingFang SC,Microsoft YaHei,sans-serif">
<text x="120" y="31.0" font-size="12" fill="#1e293b" text-anchor="end">通用设备</text>
<rect x="130" y="17.6" width="826.1" height="18.7" fill="#dc2626" rx="2"/>
<text x="964.1" y="31.0" font-size="11.5" fill="#1e293b">10.97亿</text>
<text x="120" y="65.0" font-size="12" fill="#1e293b" text-anchor="end">汽车零部</text>
<rect x="130" y="51.6" width="674.0" height="18.7" fill="#dc2626" rx="2"/>
<text x="812.0" y="65.0" font-size="11.5" fill="#1e293b">8.95亿</text>
<text x="120" y="99.0" font-size="12" fill="#1e293b" text-anchor="end">电力</text>
<rect x="130" y="85.7" width="466.9" height="18.7" fill="#dc2626" rx="2"/>
<text x="604.9" y="99.0" font-size="11.5" fill="#1e293b">6.20亿</text>
<text x="120" y="133.0" font-size="12" fill="#1e293b" text-anchor="end">通信设备</text>
<rect x="130" y="119.7" width="353.9" height="18.7" fill="#dc2626" rx="2"/>
<text x="491.9" y="133.0" font-size="11.5" fill="#1e293b">4.70亿</text>
<text x="120" y="167.0" font-size="12" fill="#1e293b" text-anchor="end">医疗服务</text>
<rect x="130" y="153.7" width="278.6" height="18.7" fill="#dc2626" rx="2"/>
<text x="416.6" y="167.0" font-size="11.5" fill="#1e293b">3.70亿</text>
<text x="120" y="201.0" font-size="12" fill="#1e293b" text-anchor="end">装修装饰</text>
<rect x="130" y="187.7" width="245.5" height="18.7" fill="#dc2626" rx="2"/>
<text x="383.5" y="201.0" font-size="11.5" fill="#1e293b">3.26亿</text>
<text x="120" y="235.0" font-size="12" fill="#1e293b" text-anchor="end">IT服务Ⅱ</text>
<rect x="130" y="221.7" width="204.1" height="18.7" fill="#dc2626" rx="2"/>
<text x="342.1" y="235.0" font-size="11.5" fill="#1e293b">2.71亿</text>
<text x="120" y="269.0" font-size="12" fill="#1e293b" text-anchor="end">综合Ⅱ</text>
<rect x="130" y="255.7" width="164.9" height="18.7" fill="#dc2626" rx="2"/>
<text x="302.9" y="269.0" font-size="11.5" fill="#1e293b">2.19亿</text>
<text x="120" y="303.0" font-size="12" fill="#1e293b" text-anchor="end">房地产开</text>
<rect x="130" y="289.6" width="150.6" height="18.7" fill="#dc2626" rx="2"/>
<text x="288.6" y="303.0" font-size="11.5" fill="#1e293b">2.00亿</text>
<text x="120" y="337.0" font-size="12" fill="#1e293b" text-anchor="end">计算机设</text>
<rect x="130" y="323.6" width="137.1" height="18.7" fill="#dc2626" rx="2"/>
<text x="275.1" y="337.0" font-size="11.5" fill="#1e293b">1.82亿</text>
</svg>