<svg viewBox="0 0 1120 360" xmlns="http://www.w3.org/2000/svg" font-family="-apple-system,PingFang SC,Microsoft YaHei,sans-serif">
<text x="120" y="31.0" font-size="12" fill="#1e293b" text-anchor="end">出版</text>
<rect x="130" y="17.6" width="826.1" height="18.7" fill="#dc2626" rx="2"/>
<text x="964.1" y="31.0" font-size="11.5" fill="#1e293b">19.90亿</text>
<text x="120" y="65.0" font-size="12" fill="#1e293b" text-anchor="end">电池</text>
<rect x="130" y="51.6" width="378.2" height="18.7" fill="#dc2626" rx="2"/>
<text x="516.2" y="65.0" font-size="11.5" fill="#1e293b">9.11亿</text>
<text x="120" y="99.0" font-size="12" fill="#1e293b" text-anchor="end">元件</text>
<rect x="130" y="85.7" width="303.5" height="18.7" fill="#dc2626" rx="2"/>
<text x="441.5" y="99.0" font-size="11.5" fill="#1e293b">7.31亿</text>
<text x="120" y="133.0" font-size="12" fill="#1e293b" text-anchor="end">房地产开发</text>
<rect x="130" y="119.7" width="209.2" height="18.7" fill="#dc2626" rx="2"/>
<text x="347.2" y="133.0" font-size="11.5" fill="#1e293b">5.04亿</text>
<text x="120" y="167.0" font-size="12" fill="#1e293b" text-anchor="end">乘用车</text>
<rect x="130" y="153.7" width="146.1" height="18.7" fill="#dc2626" rx="2"/>
<text x="284.1" y="167.0" font-size="11.5" fill="#1e293b">3.52亿</text>
<text x="120" y="201.0" font-size="12" fill="#1e293b" text-anchor="end">汽车零部件</text>
<rect x="130" y="187.7" width="140.7" height="18.7" fill="#dc2626" rx="2"/>
<text x="278.7" y="201.0" font-size="11.5" fill="#1e293b">3.39亿</text>
<text x="120" y="235.0" font-size="12" fill="#1e293b" text-anchor="end">基础建设</text>
<rect x="130" y="221.7" width="99.6" height="18.7" fill="#dc2626" rx="2"/>
<text x="237.6" y="235.0" font-size="11.5" fill="#1e293b">2.40亿</text>
<text x="120" y="269.0" font-size="12" fill="#1e293b" text-anchor="end">小家电</text>
<rect x="130" y="255.7" width="76.8" height="18.7" fill="#dc2626" rx="2"/>
<text x="214.8" y="269.0" font-size="11.5" fill="#1e293b">1.85亿</text>
<text x="120" y="303.0" font-size="12" fill="#1e293b" text-anchor="end">广告营销</text>
<rect x="130" y="289.6" width="70.6" height="18.7" fill="#dc2626" rx="2"/>
<text x="208.6" y="303.0" font-size="11.5" fill="#1e293b">1.70亿</text>
<text x="120" y="337.0" font-size="12" fill="#1e293b" text-anchor="end">包装印刷</text>
<rect x="130" y="323.6" width="65.2" height="18.7" fill="#dc2626" rx="2"/>
<text x="203.2" y="337.0" font-size="11.5" fill="#1e293b">1.57亿</text>
</svg>