<svg viewBox="0 0 1120 340" xmlns="http://www.w3.org/2000/svg" font-family="-apple-system,PingFang SC,Microsoft YaHei,sans-serif">
<line x1="55" y1="310.0" x2="1100" y2="310.0" stroke="#e2e8f0" stroke-width="1"/>
<text x="47" y="314.0" font-size="11" fill="#64748b" text-anchor="end">0</text>
<line x1="55" y1="240.0" x2="1100" y2="240.0" stroke="#e2e8f0" stroke-width="1"/>
<text x="47" y="244.0" font-size="11" fill="#64748b" text-anchor="end">2</text>
<line x1="55" y1="170.0" x2="1100" y2="170.0" stroke="#e2e8f0" stroke-width="1"/>
<text x="47" y="174.0" font-size="11" fill="#64748b" text-anchor="end">3</text>
<line x1="55" y1="100.0" x2="1100" y2="100.0" stroke="#e2e8f0" stroke-width="1"/>
<text x="47" y="104.0" font-size="11" fill="#64748b" text-anchor="end">5</text>
<line x1="55" y1="30.0" x2="1100" y2="30.0" stroke="#e2e8f0" stroke-width="1"/>
<text x="47" y="34.0" font-size="11" fill="#64748b" text-anchor="end">7</text>
<text x="55.0" y="328" font-size="11" fill="#64748b" text-anchor="middle">08/20</text>
<text x="264.0" y="328" font-size="11" fill="#64748b" text-anchor="middle">08/21</text>
<text x="473.0" y="328" font-size="11" fill="#64748b" text-anchor="middle">08/24</text>
<text x="682.0" y="328" font-size="11" fill="#64748b" text-anchor="middle">08/25</text>
<text x="891.0" y="328" font-size="11" fill="#64748b" text-anchor="middle">08/26</text>
<text x="1100.0" y="328" font-size="11" fill="#64748b" text-anchor="middle">08/27</text>
<polyline points="55.0,188.3 264.0,66.5 473.0,228.8 682.0,228.8 891.0,188.3 1100.0,107.1" fill="none" stroke="#dc2626" stroke-width="2"/>
<circle cx="55.0" cy="188.3" r="3" fill="#dc2626"/>
<circle cx="264.0" cy="66.5" r="3" fill="#dc2626"/>
<circle cx="473.0" cy="228.8" r="3" fill="#dc2626"/>
<circle cx="682.0" cy="228.8" r="3" fill="#dc2626"/>
<circle cx="891.0" cy="188.3" r="3" fill="#dc2626"/>
<circle cx="1100.0" cy="107.1" r="3" fill="#dc2626"/>
<polyline points="55.0,188.3 264.0,228.8 473.0,228.8 682.0,269.4 891.0,188.3 1100.0,188.3" fill="none" stroke="#ea580c" stroke-width="2"/>
<circle cx="55.0" cy="188.3" r="3" fill="#ea580c"/>
<circle cx="264.0" cy="228.8" r="3" fill="#ea580c"/>
<circle cx="473.0" cy="228.8" r="3" fill="#ea580c"/>
<circle cx="682.0" cy="269.4" r="3" fill="#ea580c"/>
<circle cx="891.0" cy="188.3" r="3" fill="#ea580c"/>
<circle cx="1100.0" cy="188.3" r="3" fill="#ea580c"/>
<polyline points="55.0,269.4 264.0,228.8 473.0,228.8 682.0,188.3 891.0,228.8 1100.0,188.3" fill="none" stroke="#2563eb" stroke-width="2"/>
<circle cx="55.0" cy="269.4" r="3" fill="#2563eb"/>
<circle cx="264.0" cy="228.8" r="3" fill="#2563eb"/>
<circle cx="473.0" cy="228.8" r="3" fill="#2563eb"/>
<circle cx="682.0" cy="188.3" r="3" fill="#2563eb"/>
<circle cx="891.0" cy="228.8" r="3" fill="#2563eb"/>
<circle cx="1100.0" cy="188.3" r="3" fill="#2563eb"/>
<polyline points="55.0,310.0 264.0,269.4 473.0,310.0 682.0,310.0 891.0,310.0 1100.0,107.1" fill="none" stroke="#9333ea" stroke-width="2"/>
<circle cx="55.0" cy="310.0" r="3" fill="#9333ea"/>
<circle cx="264.0" cy="269.4" r="3" fill="#9333ea"/>
<circle cx="473.0" cy="310.0" r="3" fill="#9333ea"/>
<circle cx="682.0" cy="310.0" r="3" fill="#9333ea"/>
<circle cx="891.0" cy="310.0" r="3" fill="#9333ea"/>
<circle cx="1100.0" cy="107.1" r="3" fill="#9333ea"/>
<line x1="55" y1="14" x2="71" y2="14" stroke="#dc2626" stroke-width="3"/>
<text x="75" y="18" font-size="11" fill="#1e293b">通信设备</text>
<line x1="141" y1="14" x2="157" y2="14" stroke="#ea580c" stroke-width="3"/>
<text x="161" y="18" font-size="11" fill="#1e293b">电网设备</text>
<line x1="227" y1="14" x2="243" y2="14" stroke="#2563eb" stroke-width="3"/>
<text x="247" y="18" font-size="11" fill="#1e293b">汽车零部件</text>
<line x1="325" y1="14" x2="341" y2="14" stroke="#9333ea" stroke-width="3"/>
<text x="345" y="18" font-size="11" fill="#1e293b">半导体</text>
</svg>