<svg viewBox="0 0 1120 340" xmlns="http://www.w3.org/2000/svg" font-family="-apple-system,PingFang SC,Microsoft YaHei,sans-serif">
<line x1="55" y1="310.0" x2="1100" y2="310.0" stroke="#e2e8f0" stroke-width="1"/>
<text x="47" y="314.0" font-size="11" fill="#64748b" text-anchor="end">0</text>
<line x1="55" y1="240.0" x2="1100" y2="240.0" stroke="#e2e8f0" stroke-width="1"/>
<text x="47" y="244.0" font-size="11" fill="#64748b" text-anchor="end">4</text>
<line x1="55" y1="170.0" x2="1100" y2="170.0" stroke="#e2e8f0" stroke-width="1"/>
<text x="47" y="174.0" font-size="11" fill="#64748b" text-anchor="end">8</text>
<line x1="55" y1="100.0" x2="1100" y2="100.0" stroke="#e2e8f0" stroke-width="1"/>
<text x="47" y="104.0" font-size="11" fill="#64748b" text-anchor="end">13</text>
<line x1="55" y1="30.0" x2="1100" y2="30.0" stroke="#e2e8f0" stroke-width="1"/>
<text x="47" y="34.0" font-size="11" fill="#64748b" text-anchor="end">17</text>
<text x="55.0" y="328" font-size="11" fill="#64748b" text-anchor="middle">09/02</text>
<text x="264.0" y="328" font-size="11" fill="#64748b" text-anchor="middle">09/03</text>
<text x="473.0" y="328" font-size="11" fill="#64748b" text-anchor="middle">09/04</text>
<text x="682.0" y="328" font-size="11" fill="#64748b" text-anchor="middle">09/07</text>
<text x="891.0" y="328" font-size="11" fill="#64748b" text-anchor="middle">09/08</text>
<text x="1100.0" y="328" font-size="11" fill="#64748b" text-anchor="middle">09/09</text>
<polyline points="55.0,227.6 264.0,244.1 473.0,277.1 682.0,194.7 891.0,293.5 1100.0,277.1" fill="none" stroke="#dc2626" stroke-width="2"/>
<circle cx="55.0" cy="227.6" r="3" fill="#dc2626"/>
<circle cx="264.0" cy="244.1" r="3" fill="#dc2626"/>
<circle cx="473.0" cy="277.1" r="3" fill="#dc2626"/>
<circle cx="682.0" cy="194.7" r="3" fill="#dc2626"/>
<circle cx="891.0" cy="293.5" r="3" fill="#dc2626"/>
<circle cx="1100.0" cy="277.1" r="3" fill="#dc2626"/>
<polyline points="55.0,277.1 264.0,260.6 473.0,293.5 682.0,211.2 891.0,260.6 1100.0,260.6" fill="none" stroke="#ea580c" stroke-width="2"/>
<circle cx="55.0" cy="277.1" r="3" fill="#ea580c"/>
<circle cx="264.0" cy="260.6" r="3" fill="#ea580c"/>
<circle cx="473.0" cy="293.5" r="3" fill="#ea580c"/>
<circle cx="682.0" cy="211.2" r="3" fill="#ea580c"/>
<circle cx="891.0" cy="260.6" r="3" fill="#ea580c"/>
<circle cx="1100.0" cy="260.6" r="3" fill="#ea580c"/>
<polyline points="55.0,293.5 264.0,293.5 473.0,293.5 682.0,260.6 891.0,260.6 1100.0,277.1" fill="none" stroke="#0d9488" stroke-width="2"/>
<circle cx="55.0" cy="293.5" r="3" fill="#0d9488"/>
<circle cx="264.0" cy="293.5" r="3" fill="#0d9488"/>
<circle cx="473.0" cy="293.5" r="3" fill="#0d9488"/>
<circle cx="682.0" cy="260.6" r="3" fill="#0d9488"/>
<circle cx="891.0" cy="260.6" r="3" fill="#0d9488"/>
<circle cx="1100.0" cy="277.1" r="3" fill="#0d9488"/>
<polyline points="55.0,310.0 264.0,293.5 473.0,310.0 682.0,79.4 891.0,293.5 1100.0,277.1" fill="none" stroke="#9333ea" stroke-width="2" stroke-dasharray="5,4"/>
<circle cx="55.0" cy="310.0" r="3" fill="#9333ea"/>
<circle cx="264.0" cy="293.5" r="3" fill="#9333ea"/>
<circle cx="473.0" cy="310.0" r="3" fill="#9333ea"/>
<circle cx="682.0" cy="79.4" r="3" fill="#9333ea"/>
<circle cx="891.0" cy="293.5" r="3" fill="#9333ea"/>
<circle cx="1100.0" cy="277.1" r="3" fill="#9333ea"/>
<line x1="55" y1="14" x2="71" y2="14" stroke="#dc2626" stroke-width="3"/>
<text x="75" y="18" font-size="11" fill="#1e293b">汽车零部件(主线)</text>
<line x1="201" y1="14" x2="217" y2="14" stroke="#ea580c" stroke-width="3"/>
<text x="221" y="18" font-size="11" fill="#1e293b">一般零售(主线)</text>
<line x1="335" y1="14" x2="351" y2="14" stroke="#0d9488" stroke-width="3"/>
<text x="355" y="18" font-size="11" fill="#1e293b">化学制品(主线)</text>
<line x1="469" y1="14" x2="485" y2="14" stroke="#9333ea" stroke-width="3"/>
<text x="489" y="18" font-size="11" fill="#1e293b">元件(脉冲)</text>
</svg>