<svg viewBox="0 0 1120 340" xmlns="http://www.w3.org/2000/svg" font-family="-apple-system,PingFang SC,Microsoft YaHei,sans-serif">
<line x1="50" y1="295.0" x2="1100" y2="295.0" stroke="#e2e8f0" stroke-width="1"/>
<text x="42" y="299.0" font-size="10.5" fill="#64748b" text-anchor="end">0</text>
<line x1="50" y1="240.0" x2="1100" y2="240.0" stroke="#e2e8f0" stroke-width="1"/>
<text x="42" y="244.0" font-size="10.5" fill="#64748b" text-anchor="end">506</text>
<line x1="50" y1="185.0" x2="1100" y2="185.0" stroke="#e2e8f0" stroke-width="1"/>
<text x="42" y="189.0" font-size="10.5" fill="#64748b" text-anchor="end">1,012</text>
<line x1="50" y1="130.0" x2="1100" y2="130.0" stroke="#e2e8f0" stroke-width="1"/>
<text x="42" y="134.0" font-size="10.5" fill="#64748b" text-anchor="end">1,518</text>
<line x1="50" y1="75.0" x2="1100" y2="75.0" stroke="#e2e8f0" stroke-width="1"/>
<text x="42" y="79.0" font-size="10.5" fill="#64748b" text-anchor="end">2,024</text>
<line x1="50" y1="20.0" x2="1100" y2="20.0" stroke="#e2e8f0" stroke-width="1"/>
<text x="42" y="24.0" font-size="10.5" fill="#64748b" text-anchor="end">2,530</text>
<rect x="71.5" y="280.8" width="52.5" height="14.2" fill="#dc2626" rx="2"/>
<text x="97.7" y="274.8" font-size="10" fill="#1e293b" text-anchor="middle">131</text>
<text x="97.7" y="311.0" font-size="10.5" fill="#64748b" text-anchor="middle">≥9.8%</text>
<rect x="166.9" y="285.3" width="52.5" height="9.7" fill="#dc2626" rx="2"/>
<text x="193.2" y="279.3" font-size="10" fill="#1e293b" text-anchor="middle">89</text>
<text x="193.2" y="311.0" font-size="10.5" fill="#64748b" text-anchor="middle">7~9.8%</text>
<rect x="262.4" y="275.0" width="52.5" height="20.0" fill="#dc2626" rx="2"/>
<text x="288.6" y="269.0" font-size="10" fill="#1e293b" text-anchor="middle">184</text>
<text x="288.6" y="311.0" font-size="10.5" fill="#64748b" text-anchor="middle">5~7%</text>
<rect x="357.8" y="143.7" width="52.5" height="151.3" fill="#dc2626" rx="2"/>
<text x="384.1" y="137.7" font-size="10" fill="#1e293b" text-anchor="middle">1,392</text>
<text x="384.1" y="311.0" font-size="10.5" fill="#64748b" text-anchor="middle">2~5%</text>
<rect x="453.3" y="45.0" width="52.5" height="250.0" fill="#dc2626" rx="2"/>
<text x="479.5" y="39.0" font-size="10" fill="#1e293b" text-anchor="middle">2,300</text>
<text x="479.5" y="311.0" font-size="10.5" fill="#64748b" text-anchor="middle">0~2%</text>
<rect x="548.8" y="283.6" width="52.5" height="11.4" fill="#9ca3af" rx="2"/>
<text x="575.0" y="277.6" font-size="10" fill="#1e293b" text-anchor="middle">105</text>
<text x="575.0" y="311.0" font-size="10.5" fill="#64748b" text-anchor="middle">平</text>
<rect x="644.2" y="192.9" width="52.5" height="102.1" fill="#16a34a" rx="2"/>
<text x="670.5" y="186.9" font-size="10" fill="#1e293b" text-anchor="middle">939</text>
<text x="670.5" y="311.0" font-size="10.5" fill="#64748b" text-anchor="middle">0~-2%</text>
<rect x="739.7" y="263.6" width="52.5" height="31.4" fill="#16a34a" rx="2"/>
<text x="765.9" y="257.6" font-size="10" fill="#1e293b" text-anchor="middle">289</text>
<text x="765.9" y="311.0" font-size="10.5" fill="#64748b" text-anchor="middle">-2~-5%</text>
<rect x="835.1" y="289.1" width="52.5" height="5.9" fill="#16a34a" rx="2"/>
<text x="861.4" y="283.1" font-size="10" fill="#1e293b" text-anchor="middle">54</text>
<text x="861.4" y="311.0" font-size="10.5" fill="#64748b" text-anchor="middle">-5~-7%</text>
<rect x="930.6" y="290.8" width="52.5" height="4.2" fill="#16a34a" rx="2"/>
<text x="956.8" y="284.8" font-size="10" fill="#1e293b" text-anchor="middle">39</text>
<text x="956.8" y="311.0" font-size="10.5" fill="#64748b" text-anchor="middle">-7~-9.8%</text>
<rect x="1026.0" y="292.3" width="52.5" height="2.7" fill="#16a34a" rx="2"/>
<text x="1052.3" y="286.3" font-size="10" fill="#1e293b" text-anchor="middle">25</text>
<text x="1052.3" y="311.0" font-size="10.5" fill="#64748b" text-anchor="middle">≤-9.8%</text>
</svg>